<svg width="116" height="24" viewBox="0 0 116 24" fill="none" xmlns="http://www.w3.org/2000/svg">
  <g transform="translate(0, 1.5)">
    <path d="M19.507 11.2465L13.0047 22.5014H0L2.43349 18.2902H10.5712L14.64 11.2465L13.3898 9.08372H18.2567L19.507 11.2465ZM18.706 4.20837H10.574V4.20279L10.5684 4.20837L6.50233 11.2465L7.68279 13.2921H2.81581L1.63535 11.2465L8.13209 0H21.1367L18.706 4.20837Z" fill="white"/>
  </g>
  <g transform="translate(26.84, 0)">
    <path d="M32.0707 7.30326L34.3507 5.76558H36.466C39.1842 5.76558 41.4112 7.98977 41.4112 10.7079V14.827C41.4112 17.573 39.187 19.7693 36.466 19.7693H34.3507L32.0707 18.2316V23.7963H29.3247V5.76558H32.0707V7.30326ZM23.6623 7.30326V5.76558H26.4084V19.7693H23.6623V18.2316L21.3823 19.7693H19.267C16.5488 19.7693 14.3219 17.5451 14.3219 14.827V10.7079C14.3219 7.96186 16.546 5.76558 19.267 5.76558H21.3823L23.6623 7.30326ZM50.1042 17.0233H53.9051V19.7693H43.5544V17.0233H47.3581V8.51163H43.5544V5.76558H50.1042V17.0233ZM72.9991 7.30047L75.2791 5.76279H76.7079C78.1898 5.76279 79.4874 6.54977 80.2102 7.72744L80.8716 7.30047L83.1544 5.76279H84.5833C86.8465 5.76279 88.6884 7.60465 88.6884 9.86512V19.7693H86.0177V9.94326C86.0177 9.13674 85.3898 8.50884 84.5833 8.50884H84.0056L80.8744 10.6242V19.7665H78.1256V9.70884C78.0168 9.01954 77.4363 8.51163 76.7107 8.51163H76.133L72.9991 10.627V19.7693H70.253V5.76279H72.9991V7.30047ZM64.2223 5.68465C66.1619 5.68465 67.7302 7.25302 67.7302 9.19256V16.1191L63.8679 19.6772L63.854 19.6884H59.3721C57.4354 19.6884 55.8642 18.12 55.8642 16.1805V9.25395L59.7265 5.69581L59.7405 5.68465H64.2223ZM9.20372 5.76558L11.5144 7.32558V10.6493L8.32465 8.49488H3.89861C2.65674 8.54233 2.62884 9.99349 3.61395 10.373L9.66139 12.2874C10.9898 12.7088 11.8967 13.9423 11.8967 15.3349V16.3507C11.8967 17.4474 11.3526 18.4716 10.4428 19.0856L9.61674 19.6437H2.28L0 18.106V14.7823L3.28186 16.9981H7.50698C7.52372 16.9981 9.26512 17.04 9.33209 15.9377C9.35442 15.4605 9.09488 14.9777 8.59814 14.774L2.87721 12.9628C1.16372 12.4186 -0.0474419 10.8586 0.209302 9.08651C0.337674 7.81674 1.33953 5.76 4.18046 5.78233H4.18884L9.20372 5.77116V5.76558ZM32.0707 10.627V14.9107L35.2047 17.026H36.4688C37.6772 17.026 38.6651 16.0381 38.6651 14.8298V10.7107C38.6651 9.50233 37.6772 8.51442 36.4688 8.51442H35.2047L32.0707 10.6298V10.627ZM19.267 8.51163C18.0586 8.51163 17.0707 9.49954 17.0707 10.7079V14.827C17.0707 16.0353 18.0586 17.0233 19.267 17.0233H20.5312L23.6623 14.9107V10.627L20.5312 8.51163H19.267ZM58.5823 10.4484V16.027C58.5823 16.5349 58.9926 16.9451 59.5005 16.9451H62.8214L65.0093 14.9302V9.35163C65.0093 8.84372 64.5991 8.43349 64.0912 8.43349H60.7702L58.5823 10.4484ZM50.107 2.74605H47.0847V0H50.107V2.74605Z" fill="white"/>
  </g>
</svg>
